<!--?xml version="1.0" encoding="utf-8"?-->
<!-- Generator: Adobe Illustrator 18.1.1, SVG Export Plug-In . SVG Version: 6.00 Build 0)  -->

<svg version="1.1" id="_x31_0" xmlns="http://www.w3.org/2000/svg" xmlns:xlink="http://www.w3.org/1999/xlink" x="0px" y="0px" viewBox="0 0 512 512" style="width: 256px; height: 256px; opacity: 1;" xml:space="preserve">
<style type="text/css">
	.st0{fill:#374149;}
</style>
<g>
	<path class="st0" d="M468.501,55.999L468.501,55.999v-0.154H347.804c-18.448-0.652-33.27-18.682-33.27-40.888
		c0-0.052,0-0.105,0-0.158C314.561,6.733,309.496,0,302.764,0h-33.891h-59.636c-6.73,0-11.798,6.733-11.771,14.799
		c0,0.053,0,0.106,0,0.158c0,22.206-14.822,40.236-33.27,40.888H43.499v46.17v0.282l0,0v0.154h425.002V56.138V55.999z" style="fill: rgb(223, 86, 86);"></path>
	<path class="st0" d="M68.808,415.019c0,53.559,43.418,96.981,96.977,96.981h180.431c53.558,0,96.977-43.422,96.977-96.981V133.101
		H68.808V415.019z M231.943,413.514V213.542c0-11.21,9.086-20.297,20.301-20.297c11.206,0,20.297,9.086,20.297,20.297v199.971
		c0,11.214-9.09,20.3-20.297,20.3C241.029,433.814,231.943,424.727,231.943,413.514z M363.504,413.514
		c0,11.214-9.086,20.3-20.297,20.3c-11.21,0-20.297-9.086-20.297-20.3V213.542c0-11.21,9.086-20.297,20.297-20.297
		c11.21,0,20.297,9.086,20.297,20.297V413.514z M189.094,413.514c0,11.214-9.09,20.3-20.301,20.3s-20.297-9.086-20.297-20.3V213.542
		c0-11.21,9.086-20.297,20.297-20.297s20.301,9.086,20.301,20.297V413.514z" style="fill: rgb(223, 86, 86);"></path>
</g>
</svg>
