<!--?xml version="1.0" encoding="utf-8"?-->
<!-- Generator: Adobe Illustrator 18.1.1, SVG Export Plug-In . SVG Version: 6.00 Build 0)  -->

<svg version="1.1" id="_x31_0" xmlns="http://www.w3.org/2000/svg" xmlns:xlink="http://www.w3.org/1999/xlink" x="0px" y="0px" viewBox="0 0 512 512" style="width: 256px; height: 256px; opacity: 1;" xml:space="preserve">
<style type="text/css">
	.st0{fill:#374149;}
</style>
<g>
	<path class="st0" d="M390.078,149.786c0.738,0.742,1.382,1.382,1.706,1.71C391.513,151.226,390.992,150.701,390.078,149.786z" style="fill: white;"></path>
	<path class="st0" d="M386.066,145.775c0.886,0.89,2.633,2.637,4.011,4.011C389.154,148.863,387.822,147.534,386.066,145.775z" style="fill: whiie;"></path>
	<path class="st0" d="M228.44,303.39c14.989,14.989,40.004,14.989,54.997,0l102.359-102.363c15.309-15.305,15.309-40.21,0-55.518
		c-15.103-15.108-40.406-15.116-55.514,0l-20.627,20.624l-8.518,8.468l-5.946,5.75V39.254C295.19,17.892,277.298,0,255.936,0
		c-21.362,0-39.258,17.892-39.258,39.254v75.579l-0.033,38.467l-0.144,27.115l-34.906-34.907
		c-15.403-15.403-41.19-15.042-56.199,0.718c-14.493,15.218-14.181,39.939,0.681,54.801L228.44,303.39z" style="fill: white;"></path>
	<path class="st0" d="M459.879,375.354h-42.752c-9.071,0-16.375,7.307-16.375,16.374v28.305c0,9.071-7.394,16.379-16.461,16.379
		H127.709c-9.071,0-16.375-7.308-16.375-16.379v-28.305c0-9.067-7.394-16.374-16.465-16.374H52.206
		c-9.071,0-16.461,7.307-16.461,16.374v103.811c0,9.071,7.39,16.461,16.461,16.461h407.673c9.067,0,16.375-7.39,16.375-16.461
		V391.728C476.254,382.661,468.946,375.354,459.879,375.354z" style="fill: white;"></path>
</g>
</svg>
